<svg width="898" height="474" xmlns="http://www.w3.org/2000/svg" xmlns:xlink="http://www.w3.org/1999/xlink">
 <g>
  <title>background</title>
  <rect fill="none" id="canvas_background" height="476" width="900" y="-1" x="-1"/>
 </g>
 <g>
  <title>Layer 1</title>
  <rect stroke="null" id="svg_1" height="474" width="898" y="0" x="0"/>
  <g id="svg_2">
   <defs transform="translate(-0.8410000205039978,-15.477999687194824) translate(-5,-8) translate(-102,-306) ">
    <rect height="1128.169" width="1110.695" y="0.001" id="SVGID_1_"/>
   </defs>
   <clipPath transform="translate(-0.8410000205039978,-15.477999687194824) translate(-5,-8) translate(-102,-306) " id="SVGID_2_">
    <use x="-107.841" y="-329.478" id="svg_3" xlink:href="#SVGID_1_"/>
   </clipPath>
   <path id="svg_4" d="m123.525,155.093l64.346,0c7.477,0 14.997,0.498 22.556,1.485c7.558,0.993 14.337,2.971 20.352,5.941c6.008,2.972 10.884,7.126 14.623,12.456c3.738,5.338 5.61,12.422 5.61,21.257c0,9.142 -2.719,16.724 -8.172,22.739c-5.438,6.023 -12.63,10.325 -21.566,12.916l0,0.456c5.685,0.763 10.846,2.249 15.475,4.458c4.638,2.209 8.615,5.028 11.948,8.456c3.327,3.427 5.888,7.427 7.671,12c1.79,4.568 2.682,9.446 2.682,14.626c0,8.534 -1.947,15.655 -5.843,21.369c-3.903,5.714 -8.944,10.325 -15.117,13.826c-6.172,3.508 -13.124,6.021 -20.839,7.543c-7.716,1.523 -15.401,2.285 -23.035,2.285l-70.691,0l0,-161.813zm38.024,64.679l27.551,0c2.922,0 5.805,-0.303 8.644,-0.913c2.847,-0.607 5.409,-1.601 7.686,-2.972c2.27,-1.373 4.105,-3.199 5.483,-5.485c1.379,-2.286 2.068,-5.028 2.068,-8.227c0,-3.351 -0.772,-6.132 -2.307,-8.341c-1.551,-2.209 -3.536,-3.923 -5.979,-5.146c-2.442,-1.219 -5.199,-2.093 -8.285,-2.627c-3.086,-0.533 -6.097,-0.801 -9.019,-0.801l-25.842,0l0,34.512zm0,66.966l34.128,0c2.922,0 5.888,-0.303 8.899,-0.912c3.004,-0.608 5.723,-1.677 8.165,-3.199c2.443,-1.522 4.42,-3.505 5.97,-5.943c1.544,-2.437 2.316,-5.408 2.316,-8.916c0,-3.806 -1.02,-6.89 -3.042,-9.254c-2.038,-2.363 -4.599,-4.15 -7.686,-5.373c-3.086,-1.218 -6.419,-2.057 -9.992,-2.514c-3.573,-0.456 -6.907,-0.686 -9.993,-0.686l-28.765,0l0,36.797z" fill="#FFFFFF" clip-path="url(#SVGID_2_)"/>
   <polygon id="svg_5" points="306.94299656152725,155.09301471710205 344.9660068154335,155.09301471710205 344.9660068154335,283.9950227737427 415.419009745121,283.9950227737427 415.419009745121,316.9070100784302 306.94299656152725,316.9070100784302 " fill="#FFFFFF" clip-path="url(#SVGID_2_)"/>
   <polygon id="svg_6" points="430.78601413965225,155.09301471710205 474.17297703027725,155.09301471710205 516.8339877724648,261.1410188674927 517.3209872841835,261.1410188674927 560.7080112099648,155.09301471710205 601.4210239052773,155.09301471710205 530.242007791996,316.9070100784302 499.7689853310585,316.9070100784302 " fill="#FFFFFF" clip-path="url(#SVGID_2_)"/>
   <path id="svg_7" d="m645.525,155.092l66.788,0c8.779,0 17.101,0.801 24.99,2.402c7.88,1.598 14.779,4.267 20.72,7.997c5.924,3.736 10.636,8.764 14.134,15.086c3.492,6.325 5.245,14.209 5.245,23.655c0,11.428 -3.169,21.14 -9.514,29.14c-6.337,7.997 -15.596,13.064 -27.784,15.2l43.875,68.335l-45.582,0l-36.077,-64.681l-18.771,0l0,64.681l-38.023,0l0,-161.815l-0.001,0zm38.023,66.967l22.428,0c3.416,0 7.026,-0.112 10.846,-0.345c3.821,-0.228 7.274,-0.913 10.361,-2.053c3.086,-1.146 5.646,-2.933 7.678,-5.373c2.03,-2.434 3.048,-5.862 3.048,-10.284c0,-4.115 -0.897,-7.388 -2.681,-9.829c-1.79,-2.433 -4.068,-4.302 -6.825,-5.597c-2.764,-1.296 -5.932,-2.174 -9.505,-2.63c-3.581,-0.457 -7.072,-0.687 -10.488,-0.687l-24.861,0l0,36.798l-0.001,0z" fill="#FFFFFF" clip-path="url(#SVGID_2_)"/>
   <polygon id="svg_8" points="863.3220248818398,431.0970125198364 43.39499241113663,431.0970125198364 43.39499241113663,470.8119783401489 903.033023416996,470.8119783401489 903.033023416996,467.4930086135864 903.033023416996,431.0970125198364 903.033023416996,274.7489900588989 863.3220248818398,251.63601398468018 " fill="#FFFFFF" clip-path="url(#SVGID_2_)"/>
   <polygon id="svg_9" points="863.3220248818398,1.1889925003051758 43.39499241113663,1.1889925003051758 43.39499241113663,40.902005195617676 863.3220248818398,40.902005195617676 863.3220248818398,133.5809907913208 828.0009799599648,153.99599933624268 865.460025370121,175.63198566436768 902.9689975380898,197.25100421905518 903.033023416996,40.902005195617676 903.033023416996,1.1889925003051758 " fill="#FFFFFF" clip-path="url(#SVGID_2_)"/>
   <polygon id="svg_10" points="40.67900425195694,40.902005195617676 860.6049838662148,40.902005195617676 860.6049838662148,1.1889925003051758 0.9679980874061584,1.1889925003051758 0.9679980874061584,4.506985664367676 0.9679980874061584,40.902005195617676 0.9679980874061584,197.25100421905518 40.67900425195694,220.36300373077393 " fill="#FFFFFF" clip-path="url(#SVGID_2_)"/>
   <polygon id="svg_11" points="40.67900425195694,470.8110017776489 860.6049838662148,470.8110017776489 860.6049838662148,431.0970125198364 40.67900425195694,431.0970125198364 40.67900425195694,338.4189729690552 75.99899631738663,318.0039949417114 38.539996683597565,296.3680086135864 1.031001627445221,274.7489900588989 0.9679980874061584,431.0970125198364 0.9679980874061584,470.8110017776489 " fill="#FFFFFF" clip-path="url(#SVGID_2_)"/>
  </g>
 </g>
</svg>